<svg xmlns="http://www.w3.org/2000/svg" version="1.1" xmlns:xlink="http://www.w3.org/1999/xlink" xmlns:svgjs="http://svgjs.dev/svgjs" width="1500" height="303" viewBox="0 0 1500 303"><g transform="matrix(1,0,0,1,-0.9084522071641459,-0.671739350175983)"><svg viewBox="0 0 396 80" data-background-color="#ffffff" preserveAspectRatio="xMidYMid meet" height="303" width="1500" xmlns="http://www.w3.org/2000/svg" xmlns:xlink="http://www.w3.org/1999/xlink"><g id="tight-bounds" transform="matrix(1,0,0,1,0.24008861730862918,0.17735692413887705)"><svg viewBox="0 0 395.52 79.64528615172223" height="79.64528615172223" width="395.52"><g><svg viewBox="0 0 395.52 79.64528615172223" height="79.64528615172223" width="395.52"><g><svg viewBox="0 0 395.52 79.64528615172223" height="79.64528615172223" width="395.52"><g id="textblocktransform"><svg viewBox="0 0 395.52 79.64528615172223" height="79.64528615172223" width="395.52" id="textblock"><g><svg viewBox="0 0 395.52 79.64528615172223" height="79.64528615172223" width="395.52"><path d="M394.594 17.082C392.735 8.815 387.435 6.517 387.435 6.517 371.165-1.998 350.86-0.163 332.619 1.061 300.414 1.11 268.339 2.929 236.208 3.905 168.767 4.053 100.749 1.606 33.643 7.641 27.339 9.493-6.54 8.005 1.121 18.141 3.129 22.357 10.456 27.036 10.232 30.905 11.236 31.583 12.631 30.029 13.226 31.004 15.309 33.633 18.711 32.393 21.501 33.947 17.614 38.097 20.403 41.553 23.062 45.174 18.377 46.117 12.371 45.67 9.675 48.795 9.396 51.06 7.89 50.63 6.235 50.531 5.026 50.465 2.59 50.713 2.999 51.424 4.394 53.855-1.594 55.26 2.162 57.641-0.422 60.22 3.948 62.453 3.353 65.247 3.278 65.809 3.687 66.288 4.338 66.421 7.22 67.132 3.018 68.521 3.464 70.025 33.029 80.31 65.104 73.2 95.394 77.929 103.259 74.622 97.346 79.103 100.489 78.408 102.943 77.598 104.728 80.954 107.499 79.053 107.927 78.507 107.276 77.218 108.8 77.466 109.6 77.598 110.307 77.565 110.418 76.804 110.586 75.663 109.117 76.374 108.726 75.779 112.947 72.77 111.906 79.929 115.866 79.632 115.68 78.755 114.528 77.499 116.889 77.664 119.232 76.407 119.306 75.366 121.389 78.193 121.463 78.805 121.835 79.235 122.43 79.532 128.938 76.457 135.409 80.624 142.233 79.235 146.417 77.714 150.433 80.062 154.672 79.483 156.16 79.02 157.666 78.193 159.098 79.582 176.632 79.88 195.319 78.64 211.943 79.632 256.364 77.78 303.836 80.392 350.674 77.945 361.719 77.003 373.192 75.663 383.958 74.589 383.958 74.589 392.679 71.646 392.679 58.418S394.538 46.844 394.817 36.312C395.096 25.779 396.398 25.35 394.538 17.082Z" opacity="1" fill="#f5ba41" data-fill-palette-color="tertiary"></path><g transform="matrix(1,0,0,1,55.76832,26.230666666666668)"><svg width="283.98335999999995" viewBox="0.34 -36.45 471.54 45.14" height="27.183952818388896" data-palette-color="#ffffff"><path d="M15.94-16.04Q16.14-15.84 16.55-15.84 16.97-15.84 17.26-16.02L17.26-16.02Q16.63-19.73 16.41-20.41L16.41-20.41Q16.14-21.12 15.6-21.12L15.6-21.12Q15.36-21.12 15.01-20.97L15.01-20.97 15.94-16.04ZM11.11-8.72L11.11-8.72Q10.86-8.37 10.86-8.08L10.86-8.08Q10.86-7.37 12.19-6.9 13.53-6.42 15.43-6.3L15.43-6.3Q15.75-2.78 16.11-2.29L16.11-2.29Q15.65-1.39 13.55-0.48 11.45 0.44 8.81 0.44L8.81 0.44Q5.32 0.44 2.83-1.06 0.34-2.56 0.34-4.93L0.34-4.93Q0.34-5.57 0.46-6.05L0.46-6.05 5.66-29.3Q7.62-30.54 10.33-31.25 13.04-31.96 15.97-31.96L15.97-31.96Q20.17-31.96 23.14-30.54L23.14-30.54Q26.54-28.93 27.27-25.88L27.27-25.88 32.84-2.86Q30.3 0.44 24.56 0.44L24.56 0.44Q21.78 0.44 19.85-0.56 17.92-1.56 17.6-3.42L17.6-3.42 17.07-6.4Q18.53-6.42 19.9-6.96 21.26-7.5 21.26-8.08L21.26-8.08Q21.26-8.47 20.95-8.72L20.95-8.72Q20.02-8.06 18.68-7.71 17.33-7.37 16.19-7.37L16.19-7.37Q12.89-7.37 11.11-8.72ZM59.13-17.09L59.06-12.08Q59.06-10.33 59.45-9.25 59.84-8.18 60.81-7.57L60.81-7.57Q60.84-7.45 60.84-7.1L60.84-7.1 60.84-6.67Q60.84-3.3 58.9-1.43 56.96 0.44 53.89 0.44 50.83 0.44 48.92-1.29L48.92-1.29Q46.7-3.27 46.7-7.3L46.7-7.3Q46.7-9.01 46.86-10.31 47.02-11.62 47.08-12.18 47.14-12.74 47.21-13.23 47.29-13.72 47.29-14.67 47.29-15.63 47.03-16.04 46.77-16.46 46.32-16.46 45.87-16.46 45.53-16.26L45.53-16.26 45.85-12.28Q45.41-9.81 45.41-7.06 45.41-4.3 46.65-2.03L46.65-2.03Q44.26 0.44 39.94 0.44L39.94 0.44Q37.47 0.44 35.67-0.85L35.67-0.85Q33.57-2.32 33.57-4.74L33.57-4.74 33.57-16.55Q32.13-18.58 32.13-21.55 32.13-24.51 33.57-26.68L33.57-26.68 37.91-26.68Q39.65-26.68 40.87-25.39L40.87-25.39Q39.79-24.39 39.79-23.73L39.79-23.73Q39.79-22.97 40.65-22.97L40.65-22.97Q41.72-24.83 43.93-26.05 46.14-27.27 48.95-27.27L48.95-27.27Q53.17-27.27 55.81-25.2L55.81-25.2Q59.13-22.58 59.13-17.09L59.13-17.09ZM74.21-21.97L74.21-21.97 74.21-12.3Q74.21-8.67 75.97-7.57L75.97-7.57Q76-7.45 76-7.1L76-7.1 76-6.67Q76-3.08 74.04-1.27L74.04-1.27Q72.24 0.44 69.22 0.44 66.21 0.44 64.25-1.27L64.25-1.27Q61.79-3.44 61.79-7.62L61.79-7.62 61.79-23.49Q62.23-23.8 62.74-24 63.25-24.19 63.81-24.49L63.81-24.49Q62.76-25.02 61.91-26.35 61.05-27.69 61.05-29.47L61.05-29.47Q61.05-32.54 63.08-34.5 65.11-36.45 68.05-36.45 70.99-36.45 72.98-34.46 74.97-32.47 74.97-29.47L74.97-29.47Q74.97-27.05 73.46-25.23 71.94-23.41 69.77-22.95L69.77-22.95Q69.77-22.02 70.48-22.02L70.48-22.02Q71.72-22.02 73.02-23L73.02-23Q73.99-22.24 74.21-21.97ZM83.98 0.32L83.98 0.32Q81.07 0.32 79.34-0.73L79.34-0.73Q77.41-1.83 77.41-3.98L77.41-3.98 77.41-16.55Q75.97-18.58 75.97-21.55 75.97-24.51 77.41-26.68L77.41-26.68 81.14-26.68Q84.03-26.68 85.27-24.83L85.27-24.83Q84.66-24.15 84.2-23.1 83.73-22.05 83.73-21.59 83.73-21.14 83.96-20.92 84.2-20.7 84.64-20.7L84.64-20.7Q85.49-24.1 87.88-25.68L87.88-25.68Q89.86-27.03 92.77-27.03L92.77-27.03Q96.38-27.03 98.43-25.49L98.43-25.49Q99.16-23.54 99.16-20.72 99.16-17.9 98.04-15.6L98.04-15.6Q97.21-15.16 95.74-14.86 94.28-14.55 92.79-14.55 91.3-14.55 90.12-14.76 88.93-14.97 88.4-15.14L88.4-15.14Q88.2-14.94 88.2-14.58 88.2-14.21 88.68-14.03 89.15-13.84 90.28-13.62L90.28-13.62 90.28-1.37Q87.61 0.32 83.98 0.32ZM114.3-10.64L114.3-10.64Q114.59-10.64 114.93-10.89L114.93-10.89Q114.69-11.69 114.69-13.4L114.69-13.4 114.69-25.46Q117.28-27.03 120.91-27.03L120.91-27.03Q122.96-27.03 124.51-26.48 126.06-25.93 126.89-25.02L126.89-25.02 126.89-12.3Q126.89-8.67 128.65-7.57L128.65-7.57Q128.68-7.45 128.68-7.1L128.68-7.1 128.68-6.67Q128.68-3.1 126.8-1.27L126.8-1.27Q125.09 0.44 122.08 0.44L122.08 0.44Q120.2 0.44 118.68-0.42 117.15-1.27 116.4-2.91L116.4-2.91Q115.57-2.91 115.57-2.1L115.57-2.1Q115.57-1.54 116.13-0.98L116.13-0.98Q115.35-0.34 114.25 0.05 113.15 0.44 111.01 0.44 108.88 0.44 106.85-0.44L106.85-0.44Q104.34-1.51 102.99-3.74L102.99-3.74Q101.36-6.37 101.36-10.42L101.36-10.42 101.36-16.55Q100.11-18.73 100.11-21.34L100.11-21.34Q100.11-22.68 100.45-24.12 100.8-25.56 101.55-26.68L101.55-26.68 106.92-26.68Q109.95-26.68 111.67-25.26 113.39-23.83 113.39-20.92L113.39-20.92 113.39-13.01Q113.39-10.64 114.3-10.64ZM143.18-17.31L143.18-17.31Q142.93-17.55 142.59-17.55L142.59-17.55Q142.05-17.55 141.86-16.78 141.66-16.02 141.66-13.67L141.66-13.67 141.66-11.18Q141.66-10.52 141.83-10.25 142-9.99 142.39-9.99 142.79-9.99 142.96-10.16L142.96-10.16 142.96-13.43Q142.96-15.82 143.18-17.31ZM141.42-31.74L141.42-31.74Q142.71-33.25 144.27-34.02 145.84-34.79 148.25-34.79L148.25-34.79Q151.18-34.79 153.01-33.15L153.01-33.15Q154.89-31.4 154.89-28.42L154.89-28.42 154.89-12.3Q154.89-8.67 156.65-7.57L156.65-7.57Q156.68-7.45 156.68-7.1L156.68-7.1 156.68-6.67Q156.68-3.2 154.58-1.27L154.58-1.27Q152.72 0.44 149.99 0.44L149.99 0.44Q148.08 0.44 146.69-0.37L146.69-0.37Q145.06-1.29 144.4-2.91L144.4-2.91Q143.57-2.91 143.57-2.1L143.57-2.1Q143.57-1.73 143.85-1.26 144.13-0.78 144.62-0.42L144.62-0.42Q143.18 0.44 140.88 0.44L140.88 0.44Q137.78 0.44 135.08-0.99 132.38-2.42 130.8-5.3L130.8-5.3Q128.97-8.59 128.97-13.28L128.97-13.28Q128.97-19.53 132.47-23.1 135.97-26.66 141.42-26.66L141.42-26.66Q144.64-26.66 147.03-25.44L147.03-25.44Q147.3-25.71 147.3-26L147.3-26Q147.3-26.73 145.57-27.25 143.84-27.76 142.08-27.76L142.08-27.76Q142.08-30.25 141.42-31.74ZM183.31-16.85L183.24-12.08Q183.24-10.33 183.63-9.25 184.02-8.18 184.99-7.57L184.99-7.57Q185.02-7.45 185.02-7.1L185.02-7.1 185.02-6.67Q185.02-3.3 183.08-1.43 181.14 0.44 178.07 0.44 175.01 0.44 173.11-1.29L173.11-1.29Q170.88-3.27 170.88-7.3L170.88-7.3Q170.88-9.01 171.04-10.31 171.2-11.62 171.26-12.18 171.32-12.74 171.4-13.23 171.47-13.72 171.47-14.67 171.47-15.63 171.21-16.04 170.96-16.46 170.51-16.46 170.05-16.46 169.71-16.26L169.71-16.26 170.03-12.28Q169.59-9.81 169.59-7.06 169.59-4.3 170.83-2.03L170.83-2.03Q168.44 0.44 164.12 0.44L164.12 0.44Q161.65 0.44 159.85-0.85L159.85-0.85Q157.75-2.32 157.75-4.74L157.75-4.74 157.75-33.23Q158.92-33.91 160.57-34.35 162.22-34.79 163.9-34.79L163.9-34.79Q166.71-34.79 168.54-33.69L168.54-33.69Q170.61-32.4 170.61-29.98L170.61-29.98 170.61-27.66Q168.49-27.54 166.54-26.44L166.54-26.44Q164.85-25.46 164.85-24.66L164.85-24.66Q164.85-24.39 165.05-24.18 165.24-23.97 165.51-23.93L165.51-23.93Q166.54-25.12 168.41-25.93 170.27-26.73 172.84-26.73 175.4-26.73 177.45-25.95L177.45-25.95Q180.04-24.98 181.53-22.97L181.53-22.97Q183.31-20.53 183.31-16.85L183.31-16.85ZM211.94-26.9L211.94-26.9 211.16-11.4Q211.45-11.33 211.67-11.33L211.67-11.33Q212.48-11.33 212.58-12.55L212.58-12.55 213.65-30.32Q214.41-30.98 216.44-31.49L216.44-31.49Q218.36-31.93 219.93-31.93L219.93-31.93Q223.61-31.93 225.44-30.25 227.27-28.56 227.27-25.9L227.27-25.9Q227.27-24.41 226.07-19.23 224.86-14.04 222.59-5.2L222.59-5.2Q221.76-2.1 218.85-0.73L218.85-0.73Q216.31 0.44 212.14 0.44L212.14 0.44Q209.5 0.44 207.16-0.15 204.81-0.73 203.4-1.83L203.4-1.83Q201.47-6.08 199.52-13.51 197.56-20.95 196.59-28.56L196.59-28.56Q198.88-31.96 203.89-31.96L203.89-31.96Q210.33-31.96 211.94-26.9ZM251.44-16.87L251.44-12.08Q251.44-10.33 251.83-9.25 252.22-8.18 253.2-7.57L253.2-7.57Q253.22-7.45 253.22-7.1L253.22-7.1 253.22-6.67Q253.22-3.2 251.12-1.27L251.12-1.27Q249.27 0.44 246.54 0.44L246.54 0.44Q244.68 0.44 243.14-0.44 241.6-1.32 240.94-2.98L240.94-2.98Q240.11-2.98 240.11-2.17L240.11-2.17Q240.11-1.49 240.97-0.63L240.97-0.63Q239.38 0.44 236.18 0.44L236.18 0.44Q231.67 0.44 228.97-2.01 226.27-4.47 226.27-8.87 226.27-13.28 229.13-15.7L229.13-15.7Q231.74-17.87 235.89-17.87L235.89-17.87Q237.31-17.87 238.62-17.68L238.62-17.68Q239.5-17.5 239.58-17.48L239.58-17.48Q239.65-17.72 239.65-17.9L239.65-17.9Q239.65-18.53 238.58-18.75 237.5-18.97 235.77-18.97L235.77-18.97Q232.08-18.97 229.47-17.48L229.47-17.48Q228.27-19.51 228.27-22.61L228.27-22.61Q228.27-24.37 228.71-25.22L228.71-25.22Q230.47-26.03 233.18-26.65 235.89-27.27 238.89-27.27L238.89-27.27Q245.09-27.27 248.27-24.56 251.44-21.85 251.44-16.87L251.44-16.87ZM238.77-10.89L238.77-10.89Q237.75-10.89 237.75-9.96L237.75-9.96Q237.75-9.08 238.94-9.08L238.94-9.08Q239.77-9.08 240.16-9.48 240.55-9.89 240.55-10.89L240.55-10.89Q240.55-10.89 238.77-10.89ZM266.65-29.47L266.65-29.47 266.65-12.3Q266.65-8.67 268.41-7.57L268.41-7.57Q268.43-7.45 268.43-7.1L268.43-7.1 268.43-6.67Q268.43-3.17 266.66-1.37 264.89 0.44 261.64 0.44 258.4 0.44 256.49-1.37L256.49-1.37Q254.22-3.52 254.22-7.86L254.22-7.86 254.22-33.23Q256.79-34.79 260.09-34.79 263.4-34.79 265.03-33.39 266.65-31.98 266.65-29.47ZM281.93-29.47L281.93-29.47 281.93-12.3Q281.93-8.67 283.69-7.57L283.69-7.57Q283.71-7.45 283.71-7.1L283.71-7.1 283.71-6.67Q283.71-3.17 281.94-1.37 280.17 0.44 276.93 0.44 273.68 0.44 271.77-1.37L271.77-1.37Q269.5-3.52 269.5-7.86L269.5-7.86 269.5-33.23Q272.07-34.79 275.38-34.79 278.68-34.79 280.31-33.39 281.93-31.98 281.93-29.47ZM309.47-16.87L309.47-12.08Q309.47-10.33 309.86-9.25 310.25-8.18 311.22-7.57L311.22-7.57Q311.25-7.45 311.25-7.1L311.25-7.1 311.25-6.67Q311.25-3.2 309.15-1.27L309.15-1.27Q307.29 0.44 304.56 0.44L304.56 0.44Q302.7 0.44 301.17-0.44 299.63-1.32 298.97-2.98L298.97-2.98Q298.14-2.98 298.14-2.17L298.14-2.17Q298.14-1.49 298.99-0.63L298.99-0.63Q297.41 0.44 294.21 0.44L294.21 0.44Q289.69 0.44 286.99-2.01 284.3-4.47 284.3-8.87 284.3-13.28 287.15-15.7L287.15-15.7Q289.76-17.87 293.92-17.87L293.92-17.87Q295.33-17.87 296.65-17.68L296.65-17.68Q297.53-17.5 297.6-17.48L297.6-17.48Q297.68-17.72 297.68-17.9L297.68-17.9Q297.68-18.53 296.6-18.75 295.53-18.97 293.79-18.97L293.79-18.97Q290.11-18.97 287.49-17.48L287.49-17.48Q286.3-19.51 286.3-22.61L286.3-22.61Q286.3-24.37 286.74-25.22L286.74-25.22Q288.5-26.03 291.21-26.65 293.92-27.27 296.92-27.27L296.92-27.27Q303.12-27.27 306.29-24.56 309.47-21.85 309.47-16.87L309.47-16.87ZM296.8-10.89L296.8-10.89Q295.77-10.89 295.77-9.96L295.77-9.96Q295.77-9.08 296.97-9.08L296.97-9.08Q297.8-9.08 298.19-9.48 298.58-9.89 298.58-10.89L298.58-10.89Q298.58-10.89 296.8-10.89ZM351.87-16.94L351.77-12.08Q351.77-10.3 352.16-9.18 352.56-8.06 353.53-7.45L353.53-7.45Q353.56-7.32 353.56-7.03L353.56-7.03 353.56-6.67Q353.56-3.32 351.6-1.44 349.65 0.44 346.56 0.44 343.47 0.44 341.59-1.25L341.59-1.25Q339.37-3.2 339.37-7.23L339.37-7.23 339.37-14.94Q339.37-16.58 338.3-16.58L338.3-16.58Q337.88-16.58 337.64-16.38L337.64-16.38 338.08-12.74 338.08-7.23Q338.08-3.91 339.18-2.2L339.18-2.2Q338-0.95 336.26-0.26 334.51 0.44 332.71 0.44L332.71 0.44Q329.78 0.44 328.17-0.98L328.17-0.98Q326.21-2.69 326.21-6.37L326.21-6.37 326.21-14.94Q326.21-16.58 325.14-16.58L325.14-16.58Q324.72-16.58 324.48-16.38L324.48-16.38 324.92-12.74 324.92-6.27Q324.92-3.54 325.65-2.05L325.65-2.05Q323.26 0.42 318.94 0.42L318.94 0.42Q316.37 0.42 314.62-0.88L314.62-0.88Q312.59-2.37 312.59-4.88L312.59-4.88 312.59-16.55Q311.15-18.58 311.15-21.55 311.15-24.51 312.59-26.68L312.59-26.68 318.47-26.68Q320.21-26.68 321.43-25.39L321.43-25.39Q320.35-24.39 320.35-23.73L320.35-23.73Q320.35-22.97 321.21-22.97L321.21-22.97Q322.28-24.83 324.16-25.93L324.16-25.93Q326.36-27.17 329.31-27.17L329.31-27.17Q331.56-27.17 333.26-26.22 334.95-25.27 335.78-24.02L335.78-24.02Q336.93-25.59 338.77-26.38 340.62-27.17 342.62-27.17L342.62-27.17Q347.04-27.17 349.48-24.44L349.48-24.44Q351.87-21.7 351.87-16.94L351.87-16.94ZM367.35-13.18L367.35-13.18 367.35-9.91Q367.52-9.74 367.91-9.74 368.3-9.74 368.47-10.01 368.64-10.28 368.64-10.94L368.64-10.94 368.64-13.43Q368.64-15.77 368.45-16.54 368.25-17.31 367.71-17.31L367.71-17.31Q367.37-17.31 367.13-17.07L367.13-17.07Q367.35-14.65 367.35-13.18ZM359.56-23.71L359.56-23.71Q359.56-22.97 360.41-22.97L360.41-22.97Q361.88-25.27 363.86-26.38 365.83-27.49 368.62-27.49 371.4-27.49 373.7-26.61L373.7-26.61Q376.84-25.37 378.68-22.61L378.68-22.61Q380.97-19.12 380.97-13.45L380.97-13.45Q380.97-7.08 377.57-3.55 374.16-0.02 368.13-0.02L368.13-0.02Q364.76-0.02 362.88-0.85L362.88-0.85Q362.71-0.76 362.71-0.44L362.71-0.44Q362.71 0.29 363.84 0.61 364.98 0.93 367.76 1.07L367.76 1.07 367.76 7.57Q365.25 8.69 362.25 8.69L362.25 8.69Q358.71 8.69 356.9 7.4L356.9 7.4Q354.85 6.01 354.85 3.13L354.85 3.13 354.85-16.53Q353.41-18.55 353.41-21.56L353.41-21.56Q353.41-22.78 353.8-24.22 354.19-25.66 354.85-26.68L354.85-26.68 358.31-26.68Q360.44-26.68 361.56-26.1L361.56-26.1Q359.56-24.61 359.56-23.71ZM406.92-16.87L406.92-12.08Q406.92-10.33 407.31-9.25 407.7-8.18 408.68-7.57L408.68-7.57Q408.7-7.45 408.7-7.1L408.7-7.1 408.7-6.67Q408.7-3.2 406.6-1.27L406.6-1.27Q404.75 0.44 402.01 0.44L402.01 0.44Q400.16 0.44 398.62-0.44 397.08-1.32 396.42-2.98L396.42-2.98Q395.59-2.98 395.59-2.17L395.59-2.17Q395.59-1.49 396.45-0.63L396.45-0.63Q394.86 0.44 391.66 0.44L391.66 0.44Q387.15 0.44 384.45-2.01 381.75-4.47 381.75-8.87 381.75-13.28 384.61-15.7L384.61-15.7Q387.22-17.87 391.37-17.87L391.37-17.87Q392.78-17.87 394.1-17.68L394.1-17.68Q394.98-17.5 395.06-17.48L395.06-17.48Q395.13-17.72 395.13-17.9L395.13-17.9Q395.13-18.53 394.05-18.75 392.98-18.97 391.25-18.97L391.25-18.97Q387.56-18.97 384.95-17.48L384.95-17.48Q383.75-19.51 383.75-22.61L383.75-22.61Q383.75-24.37 384.19-25.22L384.19-25.22Q385.95-26.03 388.66-26.65 391.37-27.27 394.37-27.27L394.37-27.27Q400.57-27.27 403.75-24.56 406.92-21.85 406.92-16.87L406.92-16.87ZM394.25-10.89L394.25-10.89Q393.22-10.89 393.22-9.96L393.22-9.96Q393.22-9.08 394.42-9.08L394.42-9.08Q395.25-9.08 395.64-9.48 396.03-9.89 396.03-10.89L396.03-10.89Q396.03-10.89 394.25-10.89ZM411.19-8.37L411.19-15.43 412.7-15.43Q413.92-15.43 413.92-16.24L413.92-16.24Q413.92-16.33 413.88-16.53L413.88-16.53 408.41-16.53Q407.87-18.24 407.87-20.35 407.87-22.46 408.19-23.78L408.19-23.78Q409.58-24.66 412.02-26.46L412.02-26.46Q412.7-28.13 413.8-31.74L413.8-31.74Q413.95-32.23 414.14-32.69L414.14-32.69Q416.05-33.18 418.49-33.18 420.93-33.18 423.3-32.67L423.3-32.67 423.3-26.68 427.52-26.68Q428.94-24.54 428.94-21.63L428.94-21.63Q428.94-20.31 428.57-18.92 428.21-17.53 427.52-16.55L427.52-16.55 424.03-16.55 424.03-12.87Q424.03-9.74 426.64-9.74L426.64-9.74 427.69-9.74Q428.21-7.89 428.21-6.52L428.21-6.52Q428.21-3.15 426.1-1.35 423.98 0.44 419.97 0.44 415.95 0.44 413.57-1.79 411.19-4.03 411.19-8.37L411.19-8.37ZM442.56-29.47L442.56-29.47 442.56-12.3Q442.56-8.67 444.32-7.57L444.32-7.57Q444.34-7.45 444.34-7.1L444.34-7.1 444.34-6.67Q444.34-3.17 442.57-1.37 440.8 0.44 437.56 0.44 434.31 0.44 432.4-1.37L432.4-1.37Q430.13-3.52 430.13-7.86L430.13-7.86 430.13-33.23Q432.7-34.79 436-34.79 439.31-34.79 440.94-33.39 442.56-31.98 442.56-29.47ZM470.1-16.87L470.1-12.08Q470.1-10.33 470.49-9.25 470.88-8.18 471.85-7.57L471.85-7.57Q471.88-7.45 471.88-7.1L471.88-7.1 471.88-6.67Q471.88-3.2 469.78-1.27L469.78-1.27Q467.92 0.44 465.19 0.44L465.19 0.44Q463.33 0.44 461.8-0.44 460.26-1.32 459.6-2.98L459.6-2.98Q458.77-2.98 458.77-2.17L458.77-2.17Q458.77-1.49 459.62-0.63L459.62-0.63Q458.04 0.44 454.84 0.44L454.84 0.44Q450.32 0.44 447.62-2.01 444.93-4.47 444.93-8.87 444.93-13.28 447.78-15.7L447.78-15.7Q450.39-17.87 454.54-17.87L454.54-17.87Q455.96-17.87 457.28-17.68L457.28-17.68Q458.16-17.5 458.23-17.48L458.23-17.48Q458.3-17.72 458.3-17.9L458.3-17.9Q458.3-18.53 457.23-18.75 456.16-18.97 454.42-18.97L454.42-18.97Q450.74-18.97 448.12-17.48L448.12-17.48Q446.93-19.51 446.93-22.61L446.93-22.61Q446.93-24.37 447.37-25.22L447.37-25.22Q449.12-26.03 451.83-26.65 454.54-27.27 457.55-27.27L457.55-27.27Q463.75-27.27 466.92-24.56 470.1-21.85 470.1-16.87L470.1-16.87ZM457.43-10.89L457.43-10.89Q456.4-10.89 456.4-9.96L456.4-9.96Q456.4-9.08 457.6-9.08L457.6-9.08Q458.43-9.08 458.82-9.48 459.21-9.89 459.21-10.89L459.21-10.89Q459.21-10.89 457.43-10.89Z" opacity="1" transform="matrix(1,0,0,1,0,0)" fill="#ffffff" class="wordmark-text-0" data-fill-palette-color="quaternary" id="text-0"></path></svg></g></svg></g></svg></g></svg></g><g></g></svg></g><defs></defs></svg><rect width="395.52" height="79.64528615172223" fill="none" stroke="none" visibility="hidden"></rect></g></svg></g></svg>